<?xml version="1.0" encoding="UTF-8"?><svg id="Layer_1" xmlns="http://www.w3.org/2000/svg" viewBox="0 0 782.44 782.44"><g id="Head"><path d="m590.75,320.39c.02-9.76-3.21-18.7-7.35-27.36-6.39-13.35-11.02-27.21-12.71-42.01-.47-4.12.54-5.91,4.62-7.62,14.91-6.26,22.46-18.07,22.69-34.11.2-13.22-2.78-26.15-8.75-37.78-10.84-21.13-24.75-40.18-44.14-54.42-7.46-5.48-15.83-9.74-24.08-14.73,13.48-11.22,31.44-19.97,26.09-44.01-.93-2.33-4.31-9.94-12.78-14.56-11.51-6.27-22.99-1.88-24.62-1.23-9.64,6.4-13,13.77-15.87,17.5-5.58,7.26-7.5,15.89-6.79,25.06.41,5.25-1.17,6.48-6.45,5.67-9.08-1.4-18.22-2.39-27.25-4.02-2.64-.48-5.6-2-7.36-3.98-2.81-3.18-5.77-3.86-8.67-1.37-5.17,4.45-11.12,4.44-17.36,4.63-89.68,2.68-160.38,41.22-213.11,113.35-20.33,27.81-36.2,58.16-49.29,89.92-4.73,11.47-10.29,21.35-22.17,26.77-4.79,2.19-8.9,5.89-13.29,8.94-2.45,1.7-5.74,3.33-4.05,7,1.7,3.69,5,2.24,7.9,1.4,4.28-1.25,8.57-2.45,13.22-3.77.09,1.21.31,1.87.16,2.44-7.03,26.14-3.22,51.77,2.4,77.65,5.25,24.2,19.3,43.41,32.72,63.08,11.81,17.31,24.96,33.53,42.23,45.89.52.37.89.95,1.46,1.58-34.65,48.08-51.72,65.91-60.41,71.08-.71.42-6.76,3.97-14.98,9.07-14.52,9.02-12.12,8.21-16.67,10.58-7.32,3.82-14.08,8.66-21.37,12.53,0,0-1.64.87-2.39,2.33-.05.1-.09.2-.09.2-.29.8-.38,2.2,5.06,9.02,4.84,6.06,6.23,6.6,7.41,6.61.21,0,.4,0,.58-.04,2.34-.41,3.85-1.78,4.18-2.07,4.91-4.42,69.52-28.74,98.1-89.59.66-1.41,1.68-3.63,2.82-6.42.67,4.18,1.05,6.99,1.57,9.76,6.23,33.35,22.71,60.17,51.52,78.53,16.62,10.59,33.99,19.99,50.82,30.26,9.1,5.56,18.01,11.51,26.58,17.86,26.93,19.95,54.62,38.65,86.07,50.8,7.3,2.82,15.46,3.79,23.33,4.61,3.75.39,7.74-1.58,12.17-2.61,1.81,2.15,3.65,4.33,5.66,6.7,4.54,5.38,4.52,5.36,4.6,5.45,5.61,6.2,16.41,6.51,22.28,6.68,4.99.14,12.79.37,20.55-3.16,11.73-5.34,17.55-16.62,21.34-25.29,33.68-77.06,12.78-160.65,12.78-160.65h0c-3.9-12.83-10.32-30.48-21.15-50.51,9.42-12.38,10.62-25.46,2.04-39.66,4.26.23,7.88.84,11.42.54,6.76-.57,13.76-.76,20.15-2.75,8.4-2.61,12.33-9.23,13.06-18.28,1.06-13.03-2.47-24.4-10.04-34.8-6.35-8.72-9.9-18.53-10.76-29.27-1.14-14.3-2.15-28.6-3.23-43.16,3.34-.42,6.81-.7,10.23-1.3,12.54-2.18,19.29-10.18,19.31-22.94Zm-135.13-209.22c2.57.34,4.9.66,8.36,1.12-3.77,3.51-6.72,6.24-9.66,8.98-.28-.22-.55-.43-.83-.65.68-3,1.35-6.01,2.13-9.46Zm-5.12,53.74c4.67,15.36,16.08,21.92,32.99,23.06-27.34,13.25-47.94,32.59-67.75,53.71-9.69-14.95-23.43-22.42-40.77-23.88,25.33-17.73,50.15-35.12,75.53-52.89Zm-96.9,124.35c-10.57-18.15-26.34-27.78-47.14-29.44-1.11-.09-2.22-.16-3.33-.24-.04-.3-.08-.6-.12-.9,14.7-8.21,29.41-16.41,44.41-24.78,8.35,20.36,25.6,28.45,46.06,33.15-23.34,27.5-49.13,51.87-78.39,73.14-1.62-3-3-5.62-4.45-8.21-8.03-14.39-27.64-23.8-43.86-16.74-1.06.46-2.8.61-3.66.05-5.7-3.77-10.95-8.31-16.92-11.54-5.76-3.12-12.21-4.95-18.61-7.45,12.2-5.94,24.22-12.12,36.6-17.46,1.87-.81,6.23,1.54,8.06,3.63,15.1,17.22,34.53,23.07,56.61,22.49,9.01-.23,16.98-2.95,23.63-9.25,2.1-1.99,2.77-3.58,1.11-6.43Zm-132.17-74.42c42.21-57.4,97.6-93.15,168.81-102.94,7.73-1.06,15.55-1.5,24.35-2.32-4.34,15.01-7.86,29.33,1.61,43.58-17.39,12.3-34.38,24.3-52.45,37.08,1.14-5.79,2.14-10.09,2.81-14.45,2.36-15.34-3.29-28.57-11.42-40.94-2.88-4.39-5.97-4.55-10.26-1.66-1.38.93-2.69,1.98-4.05,2.95-19.37,13.8-26.59,32.76-23.34,55.91,1.08,7.68,3.06,15.24,4.8,23.71-10.97,6.28-22.81,13.06-35.76,20.47,1.04-2.13,1.46-3.26,2.09-4.25,8.94-14.04,9.99-28.66,3.28-43.87-2.08-4.72-4.11-9.47-6.19-14.2-1.51-3.43-4.18-4.05-6.84-1.82-12.67,10.66-24.04,22.08-26.16,39.89-1.49,12.48-.91,24.6,2.47,36.68.4,1.43-.28,4.25-1.34,4.84-9.03,5.03-18.26,9.69-27.43,14.47.88-7.96,2.13-15.32,2.4-22.72.32-8.56-2.31-16.52-7.5-23.41-1.95-2.59-1.78-4.43.12-7.01Zm-37.62,62.84c1.18,4.09,2.01,6.93,2.94,10.14-2.91,1.48-5.68,2.89-8.45,4.3-.37-.24-.73-.48-1.1-.72,2.01-4.18,4.03-8.36,6.61-13.72Zm36.72,218.76c-3.93-3.89-7.57-6.8-10.36-10.37-10.56-13.56-21.33-26.99-31.08-41.12-7.44-10.78-14.95-21.94-19.74-34-6.19-15.56-7.65-32.45-6.26-49.3.93-11.32,2.32-22.52,7.28-33.06,1.95-4.16,4.49-6.29,8.67-7.99,6.18-2.52,10.58-3.35,16.45,2.13,7.68,7.17,18.67,8.39,28.83,10.32,10.51,2,21.11,2.96,30.59.55-1.83,10.19-4.37,20.35-5.32,30.64-1.28,13.8,2.21,27.15,6.17,40.31.52,1.73.76,3.88.22,5.53-7.04,21.21-14.51,42.29-21.27,63.59-2.19,6.91-2.68,14.36-4.16,22.78Zm324.16,106.51c3.55,41.82.23,83.18-15.93,122.66-2.7,6.61-7.56,8.86-14.24,6.37-9.68-3.62-19.39-7.18-28.44-10.52,2.9-8.16,6.55-16.71,8.96-25.6,3.57-13.18,6.23-26.6,9.34-39.91,1.8-7.69-.64-14.55-7.21-19.26-.79-.56-2.5-.81-3.22-.34-5.65,3.7-11.07,7.07-13.09,14.7-5.07,19.2-11.24,38.11-16.77,57.19-1.16,3.99-3.9,5-7.19,4.53-3.76-.54-7.55-1.55-11.08-2.95-31.23-12.37-58.7-30.91-85-51.5-9.42-7.38-19.79-13.57-29.84-20.13-4.45-2.9-9.19-5.35-14.05-8.15,6.84-13.25,6.18-21.88-1.58-25.87-7.42-3.82-12.34-.49-19.71,13.54-23.37-12.12-40.21-29.91-48.8-55.1-6.49-19.03-5.75-38.52-3.77-58.06,2.54-25.04,8.79-49.3,15.75-73.4.17-.58.51-1.11,1.02-2.19,3.3,3.9,6.23,7.47,9.27,10.93,4.61,5.24,9.99,9.37,16.92,11.1,8.82,2.2,16.77.44,22.95-6.29,6.8-7.4,8.78-16.39,6.42-26.13-.93-3.84-4.2-4.67-7.35-1.88-3.86,3.43-7.38,7.26-10.99,10.97-3.94,4.05-6.39,4.54-10.08.43-10.64-11.83-20.2-24.2-23.82-40.44-2.68-11.99-5.24-23.81-2.31-35.95,1.11-4.59,3.11-9.25,5.81-13.1,4.59-6.55,10.96-7.56,18.64-5.26,9.39,2.81,16.41,8.07,21.72,16.35,3.72,5.8,8.58,10.86,12.91,16.27.29.37.39.92.48,1.41,1.55,8.33,3.8,16.6,4.51,25,4.5,52.74,21.39,99.46,63.97,133.92,4.24,3.43,9.08,6.14,13.99,9.41-1.72,3.18-3.89,6.54-5.45,10.17-5.33,12.4-10.59,24.83-15.51,37.4-1.11,2.83-1.07,6.27-.91,9.4.61,12.02,9.48,19.97,21.4,18.54,5.54-.67,11.1-2.49,16.25-4.73,14.9-6.46,27.64-16.17,39.12-27.56,6.52-6.47,12.43-13.65,19.41-19.57,10.02-8.5,20.68-16.27,31.24-24.11,5.48-4.06,11.34-7.61,17.4-11.63,3.5,3.17,6.74,6.53,7.64,12.19,3.59,22.41,9.28,44.61,11.19,67.15Zm-141.4-15.92c1.46-4.07,2.6-8.29,4.43-12.19,5.11-10.88,10.32-21.73,15.83-32.41,16.6-32.23,44.72-48.06,79-54.74,6.85-1.34,13.94-1.47,20.92-2.19,3.91-.4,5.34,1.56,5.58,5.23.45,6.68-3.27,11.75-6.34,17.06-.36.62-1.74.87-2.66.89-8.48.18-15.89,3.48-23.07,7.6-13.74,7.88-25.79,17.9-37.01,28.98-6.78,6.69-13.04,14.04-20.46,19.93-9.49,7.54-19.89,13.97-29.97,20.76-1.56,1.05-3.53,1.48-5.31,2.19-.31-.37-.63-.73-.94-1.1Zm151.68-266.67c-12.98-1.12-26.02-1.98-38.91-3.8-16.8-2.37-33.01-.73-48.79,5.24-9.2,3.48-18.31,7.24-27.31,11.22-1.81.8-2.93,3.13-4.37,4.75,2.02,1.06,4.06,3.06,6.06,3.04,13.19-.18,26.46-.02,39.55-1.44,21.62-2.35,42.58,2.41,64.43,4.05-5.32,13.64-5.13,27.51-5.27,41.33-.16,16.56,4.65,31.53,13.85,45.29,2.72,4.08,4.8,8.73,6.36,13.39,1.24,3.7-.6,6.01-4.97,5.65-8.3-.69-16.62-1.23-24.74-1.82-.83-2.68-1.07-5.12-2.25-6.95-3.5-5.46-12.47-4.71-14.67,1.42-1.17,3.26-3.02,3.42-5.75,4.08-6.43,1.56-12.76,3.62-18.97,5.94-1.5.56-3.29,2.93-3.23,4.39.06,1.46,2.03,3.39,3.61,4.12,4.82,2.23,9.86,3.97,15.77,6.27-35.92,6.94-66.92,21.2-89.88,50.14-16.01-13.36-31.89-26.46-42.55-44.76-10.7-18.36-17.06-38.35-23.87-58.29-6.49-19.02-8.31-38.77-11.54-58.33-.23-1.38.78-3.63,1.94-4.49,32.38-24.16,59.7-53.43,85.76-84.05,14-16.44,28.89-32.09,46.64-44.59,8.15-5.74,17-10.49,25.91-15.91,10.17,20.42,26.1,31.52,46.22,37.49,1.45.43,3.25,2.81,3.31,4.34.75,19.2,6.1,37.14,13.95,54.52,2.37,5.24,3.96,10.83,6.47,17.79-5.27,0-9.03.27-12.74-.05Zm-.74-101.61c-6.93-1.28-13.83-3.77-20.18-6.88-7.17-3.5-14.2-7.69-20.38-12.71-5.03-4.08-8.71-9.83-13.75-15.74,9.25-2.91,14.4-8.2,18.43-14.79,1.7-2.78,2.3-4.62-1.74-6.5-5.09-2.36-9.79-5.75-14.3-9.15-8.02-6.06-16.77-9.51-27.82-8.51,1.16-1.51,1.71-2.42,2.45-3.14,6.22-6.07,12.55-12.02,18.68-18.19,2-2.02,3.69-2.66,6.56-1.63,23.65,8.52,42.62,22.9,55.43,44.68,4.7,7.99,9.11,16.35,12.1,25.07,1.72,5.04,1.2,11.31.13,16.72-1.55,7.83-7.76,12.22-15.59,10.77Z"/><path d="m474.73,356.33c2.32.2,4.67.27,6.96.64,6.36,1.01,10.76,4.75,11.87,9.94,1.19,5.51-1.27,10.91-6.62,14.55-10.33,7.02-26.71,6.43-35.91-2.21-4.05-3.8-7.89-4.9-12.93-3.83-2.77.59-5.58,1.26-8.38,1.3-1.35.02-3.48-1.06-3.85-2.13-.34-.99.84-3.33,1.94-3.88,14.81-7.4,29.8-14.36,46.92-14.37Z"/></g><path id="Circle" d="m391.22,0C175.16,0,0,175.16,0,391.22s175.16,391.22,391.22,391.22,391.22-175.16,391.22-391.22S607.29,0,391.22,0Zm0,762.38c-204.99,0-371.16-166.17-371.16-371.16S186.24,20.06,391.22,20.06s371.16,166.17,371.16,371.16-166.17,371.16-371.16,371.16Z"/></svg>