<?xml version="1.0" encoding="UTF-8"?><svg id="Layer_1" xmlns="http://www.w3.org/2000/svg" viewBox="0 0 2252.22 780.8"><path d="m424.98,373.8c.37,1.07,2.5,2.15,3.85,2.13,2.79-.04,5.6-.71,8.36-1.3,5.03-1.07,8.86.03,12.9,3.83,9.18,8.62,25.53,9.21,35.84,2.2,5.34-3.63,7.79-9.02,6.61-14.52-1.12-5.19-5.5-8.92-11.85-9.92-2.29-.36-4.63-.43-6.95-.64-17.09.01-32.04,6.96-46.82,14.34-1.1.55-2.28,2.89-1.94,3.88Z"/><path d="m390.4,0C174.79,0,0,174.79,0,390.4s174.79,390.4,390.4,390.4,390.4-174.79,390.4-390.4S606.01,0,390.4,0Zm0,20.02c43.17,0,84.58,7.46,123.11,21.04-2.5.52-4.29,1.18-4.85,1.41-9.62,6.39-12.97,13.74-15.83,17.46-5.57,7.25-7.49,15.86-6.77,25.01.41,5.24-1.16,6.47-6.43,5.65-9.06-1.4-18.18-2.38-27.19-4.01-2.64-.48-5.59-1.99-7.34-3.97-2.81-3.18-5.76-3.85-8.66-1.36-5.16,4.44-11.09,4.43-17.32,4.62-89.5,2.67-160.04,41.13-212.66,113.12-20.29,27.75-36.12,58.04-49.19,89.73-4.72,11.45-10.27,21.3-22.12,26.72-4.78,2.18-8.88,5.87-13.27,8.92-2.44,1.7-5.72,3.32-4.04,6.99,1.7,3.68,4.99,2.24,7.88,1.39,4.27-1.24,8.55-2.44,13.19-3.76.09,1.21.31,1.87.16,2.44-7.02,26.08-3.21,51.67,2.4,77.49,5.24,24.15,19.26,43.32,32.65,62.94,11.79,17.27,24.91,33.46,42.14,45.79.52.37.89.95,1.46,1.58-34.58,47.98-51.61,65.77-60.28,70.93-.71.42-6.75,3.96-14.95,9.05-14.49,9-12.09,8.19-16.63,10.56-7.31,3.81-14.05,8.64-21.32,12.51,0,0-.98.53-1.77,1.44-51.72-63.69-82.75-144.84-82.75-233.28C20.02,185.85,185.85,20.02,390.4,20.02Zm50.3,320.07c13.17-.18,26.41-.02,39.47-1.44,21.58-2.35,42.49,2.4,64.3,4.04-5.31,13.62-5.12,27.45-5.26,41.24-.16,16.52,4.64,31.46,13.82,45.2,2.72,4.07,4.79,8.71,6.35,13.36,1.24,3.69-.6,6-4.96,5.64-8.28-.69-16.58-1.23-24.69-1.82-.83-2.67-1.07-5.1-2.25-6.94-3.5-5.45-12.44-4.7-14.64,1.42-1.17,3.26-3.01,3.41-5.74,4.08-6.42,1.56-12.74,3.61-18.93,5.92-1.5.56-3.28,2.92-3.22,4.39.06,1.46,2.02,3.39,3.61,4.12,4.81,2.22,9.84,3.96,15.74,6.26-35.84,6.93-66.78,21.16-89.69,50.03-15.98-13.33-31.83-26.4-42.47-44.66-10.68-18.32-17.02-38.27-23.82-58.17-6.48-18.98-8.29-38.69-11.52-58.21-.23-1.38.78-3.62,1.94-4.48,32.31-24.11,59.58-53.32,85.58-83.87,13.97-16.41,28.83-32.02,46.54-44.49,8.13-5.73,16.96-10.47,25.85-15.88,10.14,20.38,26.05,31.45,46.13,37.42,1.45.43,3.24,2.8,3.3,4.33.75,19.16,6.09,37.07,13.93,54.41,2.36,5.23,3.96,10.81,6.45,17.75-5.26,0-9.01.27-12.71-.05-12.96-1.12-25.96-1.98-38.83-3.79-16.77-2.37-32.94-.73-48.69,5.23-9.18,3.48-18.27,7.23-27.26,11.19-1.8.8-2.93,3.12-4.36,4.74,2.02,1.06,4.05,3.06,6.05,3.03Zm72.73,390.35c-9.66-3.61-19.35-7.16-28.38-10.5,2.9-8.15,6.54-16.68,8.94-25.55,3.56-13.15,6.22-26.54,9.32-39.82,1.79-7.68-.64-14.52-7.19-19.22-.79-.56-2.5-.81-3.21-.34-5.64,3.69-11.05,7.06-13.06,14.67-5.06,19.16-11.21,38.03-16.74,57.07-1.15,3.98-3.89,4.99-7.18,4.52-3.75-.54-7.53-1.54-11.06-2.94-31.16-12.35-58.58-30.85-84.83-51.39-9.4-7.36-19.74-13.55-29.77-20.09-4.44-2.89-9.17-5.34-14.03-8.13,6.83-13.22,6.17-21.83-1.58-25.82-7.41-3.81-12.31-.49-19.67,13.51-23.32-12.09-40.12-29.84-48.7-54.99-6.47-18.99-5.74-38.44-3.76-57.94,2.53-24.99,8.77-49.2,15.72-73.25.17-.58.51-1.11,1.02-2.18,3.3,3.9,6.22,7.45,9.25,10.91,4.6,5.23,9.97,9.35,16.88,11.08,8.81,2.2,16.73.44,22.91-6.28,6.79-7.39,8.76-16.36,6.41-26.08-.93-3.83-4.19-4.66-7.33-1.87-3.86,3.43-7.37,7.24-10.97,10.95-3.93,4.05-6.38,4.53-10.06.43-10.62-11.8-20.15-24.15-23.77-40.36-2.67-11.97-5.23-23.76-2.31-35.87,1.11-4.58,3.1-9.23,5.8-13.07,4.58-6.53,10.94-7.55,18.6-5.25,9.37,2.8,16.38,8.05,21.68,16.32,3.71,5.79,8.57,10.84,12.88,16.24.29.36.39.92.48,1.41,1.55,8.31,3.79,16.57,4.5,24.95,4.49,52.62,21.35,99.25,63.84,133.64,4.24,3.43,9.06,6.12,13.96,9.39-1.72,3.17-3.88,6.53-5.44,10.15-5.31,12.38-10.57,24.78-15.47,37.32-1.1,2.82-1.07,6.26-.91,9.38.61,12,9.46,19.93,21.35,18.5,5.52-.66,11.08-2.49,16.21-4.72,14.87-6.45,27.59-16.14,39.04-27.51,6.51-6.46,12.4-13.62,19.37-19.53,10-8.48,20.64-16.24,31.18-24.06,5.47-4.06,11.32-7.59,17.36-11.61,3.5,3.16,6.72,6.52,7.63,12.16,3.58,22.37,9.26,44.52,11.16,67,3.54,41.73.23,83-15.89,122.4-2.7,6.59-7.55,8.84-14.21,6.35ZM185.08,322.04c7.66,7.15,18.63,8.37,28.77,10.3,10.49,2,21.06,2.95,30.53.55-1.83,10.17-4.36,20.3-5.31,30.58-1.27,13.77,2.2,27.09,6.16,40.23.52,1.72.76,3.87.22,5.52-7.03,21.17-14.48,42.2-21.23,63.46-2.19,6.89-2.67,14.33-4.15,22.73-3.92-3.88-7.56-6.78-10.34-10.35-10.54-13.53-21.29-26.94-31.02-41.04-7.42-10.75-14.92-21.89-19.7-33.93-6.17-15.52-7.63-32.38-6.25-49.2.93-11.29,2.32-22.47,7.26-32.99,1.95-4.15,4.49-6.28,8.65-7.98,6.17-2.51,10.55-3.34,16.41,2.12Zm-8.26-31.25c2.01-4.17,4.02-8.34,6.6-13.69,1.18,4.08,2,6.91,2.93,10.12-2.9,1.48-5.67,2.88-8.43,4.29-.37-.24-.73-.48-1.1-.72Zm238.5-137.95c-17.36,12.27-34.3,24.25-52.34,37,1.14-5.77,2.14-10.07,2.81-14.42,2.35-15.31-3.28-28.51-11.4-40.86-2.88-4.38-5.96-4.54-10.24-1.65-1.38.93-2.68,1.97-4.04,2.94-19.33,13.77-26.54,32.69-23.29,55.79,1.08,7.66,3.05,15.2,4.79,23.66-10.94,6.27-22.76,13.03-35.68,20.43,1.04-2.13,1.45-3.25,2.08-4.24,8.93-14.01,9.97-28.6,3.28-43.77-2.08-4.71-4.1-9.45-6.18-14.17-1.51-3.42-4.17-4.05-6.82-1.81-12.65,10.64-23.99,22.03-26.11,39.81-1.49,12.45-.91,24.55,2.47,36.61.4,1.43-.28,4.24-1.34,4.83-9.01,5.02-18.22,9.67-27.37,14.44.88-7.95,2.12-15.29,2.4-22.67.32-8.54-2.3-16.48-7.49-23.36-1.95-2.58-1.78-4.42.12-6.99,42.12-57.28,97.4-92.96,168.45-102.73,7.72-1.06,15.52-1.49,24.3-2.31-4.33,14.97-7.85,29.27,1.6,43.49Zm67.16,34.74c-27.28,13.23-47.84,32.52-67.61,53.6-9.67-14.92-23.38-22.37-40.68-23.83,25.27-17.7,50.05-35.04,75.37-52.78,4.66,15.33,16.04,21.88,32.92,23.01Zm-29.93-67.2c.67-3,1.35-5.99,2.13-9.44,2.56.34,4.89.66,8.34,1.12-3.76,3.5-6.7,6.23-9.64,8.96-.28-.22-.55-.43-.83-.65Zm-99.69,168.27c-10.55-18.11-26.28-27.72-47.05-29.38-1.11-.09-2.22-.16-3.33-.24-.04-.3-.08-.6-.12-.9,14.67-8.19,29.35-16.38,44.32-24.73,8.33,20.32,25.54,28.39,45.97,33.08-23.29,27.44-49.03,51.76-78.23,72.99-1.62-2.99-3-5.61-4.44-8.19-8.01-14.36-27.58-23.75-43.76-16.71-1.05.46-2.8.61-3.65.05-5.69-3.76-10.93-8.29-16.89-11.52-5.75-3.11-12.18-4.94-18.57-7.44,12.18-5.93,24.17-12.09,36.53-17.43,1.87-.81,6.21,1.54,8.04,3.62,15.07,17.18,34.46,23.02,56.49,22.44,8.99-.23,16.95-2.95,23.58-9.23,2.09-1.98,2.76-3.57,1.1-6.41Zm49.58,297.15c1.45-4.06,2.6-8.27,4.42-12.16,5.1-10.86,10.3-21.68,15.79-32.34,16.56-32.16,44.63-47.96,78.84-54.63,6.84-1.33,13.91-1.47,20.88-2.19,3.9-.4,5.33,1.55,5.57,5.22.45,6.67-3.26,11.73-6.33,17.02-.36.61-1.74.87-2.65.89-8.46.18-15.86,3.47-23.03,7.58-13.71,7.86-25.73,17.86-36.93,28.91-6.77,6.68-13.01,14.01-20.41,19.89-9.47,7.53-19.84,13.94-29.9,20.71-1.55,1.05-3.53,1.47-5.3,2.19-.31-.37-.63-.73-.94-1.1Zm150.63-367.51c-6.92-1.28-13.8-3.77-20.14-6.86-7.16-3.5-14.17-7.67-20.34-12.68-5.02-4.08-8.69-9.81-13.72-15.7,9.23-2.9,14.37-8.19,18.39-14.76,1.7-2.77,2.29-4.61-1.74-6.48-5.08-2.36-9.77-5.73-14.27-9.14-8.01-6.05-16.74-9.49-27.76-8.5,1.16-1.5,1.71-2.41,2.44-3.13,6.21-6.06,12.53-12,18.64-18.15,2-2.01,3.69-2.66,6.54-1.63,23.6,8.5,42.53,22.85,55.32,44.59,4.69,7.97,9.1,16.31,12.07,25.02,1.72,5.03,1.2,11.29.13,16.68-1.54,7.81-7.75,12.19-15.56,10.75ZM116.65,639.87c1.44-.57,2.37-1.4,2.61-1.62,4.9-4.41,69.37-28.68,97.89-89.4.66-1.41,1.67-3.62,2.82-6.41.66,4.17,1.04,6.97,1.56,9.74,6.22,33.28,22.67,60.04,51.42,78.37,16.58,10.57,33.92,19.94,50.71,30.2,9.08,5.55,17.97,11.48,26.52,17.82,26.87,19.91,54.51,38.57,85.89,50.69,7.29,2.81,15.43,3.78,23.28,4.6,3.74.39,7.72-1.57,12.15-2.6,1.81,2.14,3.65,4.32,5.65,6.69,4.54,5.37,4.51,5.35,4.59,5.44,1.76,1.95,4.07,3.27,6.54,4.23-31.19,8.53-63.99,13.17-97.88,13.17-108.46,0-206.01-46.63-273.75-120.91Zm426.11,88.11c1.14-2.18,2.14-4.32,3.01-6.32,33.61-76.9,12.75-160.31,12.75-160.31h0c-3.9-12.81-10.29-30.41-21.1-50.4,9.4-12.36,10.6-25.41,2.04-39.58,4.25.23,7.87.83,11.4.54,6.75-.57,13.73-.76,20.11-2.74,8.39-2.6,12.3-9.21,13.04-18.24,1.06-13-2.46-24.35-10.02-34.73-6.33-8.7-9.88-18.49-10.73-29.21-1.14-14.27-2.15-28.54-3.23-43.07,3.33-.41,6.8-.7,10.21-1.29,12.52-2.18,19.25-10.16,19.27-22.89.02-9.74-3.2-18.66-7.34-27.3-6.38-13.33-11-27.15-12.69-41.92-.47-4.11.54-5.9,4.61-7.61,14.88-6.24,22.41-18.03,22.65-34.04.19-13.19-2.78-26.1-8.73-37.7-10.81-21.08-24.7-40.09-44.04-54.31-7.45-5.47-15.8-9.72-24.03-14.7,13.45-11.2,31.37-19.93,26.04-43.91-.39-.98-1.26-2.93-2.73-5.17,128.27,58.21,217.53,187.32,217.53,337.35s-89.49,279.47-218.02,337.57Z"/><path d="m1085.1,284.22c-18.66-13.2-41.39-20.82-68.18-22.85-6.35-.51-21.14-.76-44.38-.76h-104.75v4.38c12.06.64,21.2,3.56,27.43,8.76,4.95,4.19,8.28,9.52,10,16s2.57,16.7,2.57,30.66v140.37c0,12.95-.73,22.57-2.19,28.85-1.46,6.29-4.16,11.46-8.09,15.52-3.56,3.68-7.56,6.35-12,8-4.45,1.65-10.35,2.67-17.71,3.05v4.38h140.75c16.38,0,32.44-1.46,48.19-4.38,21.08-3.93,38.66-13.14,52.76-27.62,10.03-10.28,17.87-23.2,23.52-38.76,5.65-15.55,8.48-32.09,8.48-49.61,0-24-4.95-46.19-14.86-66.57-9.9-20.38-23.75-36.85-41.52-49.42Zm3.52,160.27c-4.51,14.41-11.08,27.21-19.71,38.38-8.76,11.56-18.7,19.9-29.81,25.05-11.11,5.14-24.47,7.71-40.09,7.71-18.28,0-31.49-4.95-39.62-14.86-3.81-4.57-6.41-10.09-7.81-16.57-1.4-6.48-2.1-15.93-2.1-28.38v-189.32h23.05c16.5,0,30.09,1.46,40.76,4.38,19.55,5.46,36.38,16.64,50.47,33.52,10.16,12.19,17.97,26.41,23.43,42.66,5.46,16.25,8.19,33.4,8.19,51.42,0,16.25-2.26,31.59-6.76,46Z"/><path d="m1386.31,472.2c-2.86,6.98-6.57,13.21-11.14,18.66-6.48,8.13-14.86,14.13-25.14,18-10.28,3.88-23.05,5.81-38.28,5.81s-26.13-2.12-34.95-6.38c-8.83-4.25-15.4-10.95-19.71-20.09-2.54-5.33-4.26-11.97-5.14-19.9-.89-7.93-1.33-20.6-1.33-38v-43.61h10.86c9.39,0,17.14.95,23.24,2.86,6.09,1.9,11.05,4.89,14.86,8.95,3.93,4.19,7.01,9.27,9.24,15.24,2.22,5.97,3.9,13.84,5.05,23.62h4.38l.76-102.09-4.38-.19c-1.14,9.78-2.57,17.17-4.29,22.19-1.71,5.02-4.35,9.37-7.9,13.05-3.68,3.94-8.45,6.67-14.28,8.19-5.84,1.52-14.54,2.29-26.09,2.29h-11.43v-114.27h43.61c13.46,0,24.25.92,32.38,2.76,8.12,1.84,15.17,4.98,21.14,9.43,7.24,5.33,12.76,11.49,16.57,18.47,3.81,6.98,6.54,15.81,8.19,26.47l4.38-.19-3.24-62.85h-204.74v4.38c7.36.38,13.3,1.4,17.81,3.05,4.51,1.65,8.48,4.32,11.9,8,3.93,4.07,6.63,9.24,8.09,15.52,1.46,6.29,2.19,15.9,2.19,28.85v140.37c0,12.95-.73,22.57-2.19,28.85-1.46,6.29-4.16,11.46-8.09,15.52-3.56,3.68-7.59,6.35-12.09,8-4.51,1.65-10.38,2.67-17.62,3.05v4.38h227.22l2.48-75.8-4.38-.19c-2.41,11.43-5.05,20.64-7.9,27.62Z"/><path d="m1577.05,464.2l-82.47-203.6h-82.66v4.38c9.14.51,16.47,2.19,22,5.05,5.52,2.86,9.87,7.27,13.05,13.24,2.29,4.32,3.74,11.17,4.38,20.57.38,5.21.57,10.73.57,16.57v140.37c0,12.95-.73,22.57-2.19,28.85-1.46,6.29-4.16,11.46-8.09,15.52-3.56,3.68-7.59,6.35-12.09,8-4.51,1.65-10.38,2.67-17.62,3.05v4.38h87.8v-4.38c-7.24-.38-13.11-1.4-17.62-3.05-4.51-1.65-8.54-4.31-12.09-8-3.94-4.06-6.64-9.2-8.09-15.43-1.46-6.22-2.19-15.87-2.19-28.95v-166.84l97.51,226.65h4l98.09-230.07v170.27c0,12.95-.73,22.57-2.19,28.85-1.46,6.29-4.16,11.46-8.1,15.52-3.56,3.56-7.59,6.19-12.09,7.9-4.51,1.71-10.45,2.76-17.81,3.14v4.38h121.7v-4.38c-12.7-.63-22.54-4.31-29.52-11.05-3.94-3.81-6.67-8.89-8.19-15.24-1.52-6.35-2.29-16.06-2.29-29.14v-140.37c0-9.01.44-16.82,1.33-23.43.51-4.95,1.46-9.05,2.86-12.28,1.4-3.24,3.49-6.19,6.29-8.86,3.68-3.68,7.72-6.31,12.1-7.9,4.38-1.59,10.19-2.57,17.43-2.95v-4.38h-78.28l-85.52,203.6Z"/><path d="m1967.11,266.8c-18.28-8.58-37.2-12.87-56.76-12.87-15.37,0-30.6,2.7-45.71,8.1-15.11,5.4-29.21,13.12-42.28,23.15-17.52,13.6-30.86,29.51-40,47.75-9.14,18.23-13.71,38.02-13.71,59.37,0,16.27,2.82,31.93,8.47,46.98,5.65,15.06,13.74,28.5,24.28,40.31,13.33,15.12,29.2,26.81,47.61,35.07,18.41,8.26,37.71,12.39,57.9,12.39s40.03-4.26,58.76-12.77c18.73-8.51,34.95-20.52,48.66-36.02,11.17-12.45,19.68-26.24,25.52-41.36,5.84-15.12,8.76-30.81,8.76-47.08,0-32.4-11.17-61.31-33.52-86.72-13.71-15.63-29.71-27.73-48-36.31Zm5.33,221.57c-9.14,11.44-18.76,19.69-28.85,24.78-10.1,5.08-21.81,7.62-35.14,7.62s-24.85-2.57-34.95-7.72c-10.09-5.15-19.65-13.37-28.66-24.68-20.06-25.28-30.09-56.35-30.09-93.2,0-20.96,2.73-40.6,8.19-58.89,5.46-18.3,13.2-33.74,23.24-46.32,8.38-10.55,17.49-18.17,27.33-22.87,9.84-4.7,21.49-7.05,34.95-7.05s25.36,2.38,35.33,7.15c9.97,4.77,19.01,12.36,27.14,22.77,10.03,12.71,17.81,28.18,23.33,46.41,5.52,18.23,8.29,37.58,8.29,58.04,0,37.23-10.03,68.55-30.09,93.96Z"/><path d="m2236.63,401.11c-9.13-11.82-24.03-22.62-44.69-32.41l-26.81-12.96c-27.26-12.96-40.89-30.06-40.89-51.29,0-5.34.98-10.67,2.95-16.01,1.96-5.34,4.66-9.98,8.08-13.92,8.24-9.66,19.45-14.49,33.65-14.49,9.76,0,18.38,2.38,25.86,7.14,7.48,4.76,14.32,12.09,20.53,22,3.42,5.46,6.37,11.4,8.84,17.81,2.47,6.41,5.42,15.65,8.84,27.71h4.38l-1.33-75.61h-4.38c-1.52,6.48-4.51,9.71-8.95,9.71-1.78,0-3.81-.35-6.1-1.05-2.29-.7-6.6-2.31-12.95-4.86-8.51-3.55-15.3-5.93-20.38-7.14-5.08-1.2-10.6-1.81-16.57-1.81-18.41,0-34.35,6.22-47.81,18.66-7.62,6.98-13.56,15.37-17.81,25.14-4.26,9.78-6.38,19.94-6.38,30.47,0,17.14,5.46,31.68,16.38,43.62,3.93,4.32,9.11,8.57,15.52,12.76,6.41,4.19,15.65,9.33,27.71,15.43,13.71,6.98,23.9,12.76,30.57,17.33,6.67,4.57,11.84,9.33,15.52,14.28,3.55,4.83,6.38,10.6,8.48,17.33,2.09,6.73,3.14,13.33,3.14,19.81,0,14.98-4.76,27.36-14.28,37.14-9.52,9.78-21.59,14.67-36.19,14.67-20.95,0-38.35-10.64-52.19-31.92-7.37-11.53-13.71-27.3-19.05-47.31l-4.38-.19-.57,78.66h4.38c2.29-6.09,6.48-9.14,12.57-9.14,1.9,0,3.62.26,5.14.76,1.52.51,6.22,2.48,14.09,5.9,15.11,6.48,30.85,9.71,47.23,9.71,17.9,0,33.46-4.02,46.66-12.07,13.2-8.04,23.11-19.48,29.71-34.3,4.7-10.64,7.05-21.79,7.05-33.44,0-17.54-5.2-32.92-15.59-46.14Z"/></svg>